# xmcd
#
# Track frame offsets: 
#        182
#        24875
#        42632
#        62585
#        81642
#        102625
#        127232
#        150327
#        172150
#        194430
#
# Disc length: 2869 seconds
#
# Revision: 3
# Processed by: cddbd v1.5.2PL0 Copyright (c) Steve Scherf et al.
# Submitted via: ExactAudioCopy v1.0b3
#
DISCID=8e0b330a
DTITLE=Ambersunshower - Walter T. Smith
DYEAR=1996
DGENRE=Soul
TTITLE0=Look Around My Window
TTITLE1=Voices Inside My Head
TTITLE2=Running Song
TTITLE3=Chide
TTITLE4=Rhythm Child
TTITLE5=Walter T.
TTITLE6=Blue Skies Butterflies
TTITLE7=Feelings of Love
TTITLE8=Serengeti Plains
TTITLE9=Desoto
EXTD=Island Records, 1996
EXTT0=
EXTT1=
EXTT2=
EXTT3=
EXTT4=
EXTT5=
EXTT6=
EXTT7=
EXTT8=
EXTT9=
PLAYORDER=
